HIERARCHY
ROOT Hips
{
	OFFSET 0.00000 0.00000 0.00000
	CHANNELS 6 Xposition Yposition Zposition Zrotation Yrotation Xrotation 
	JOINT LHipJoint
	{
		OFFSET 0 0 0
		CHANNELS 3 Zrotation Yrotation Xrotation
		JOINT LeftUpLeg
		{
			OFFSET 1.52977 -1.71332 0.88991
			CHANNELS 3 Zrotation Yrotation Xrotation
			JOINT LeftLeg
			{
				OFFSET 2.23949 -6.15296 0.00000
				CHANNELS 3 Zrotation Yrotation Xrotation
				JOINT LeftFoot
				{
					OFFSET 2.68396 -7.37412 0.00000
					CHANNELS 3 Zrotation Yrotation Xrotation
					JOINT LeftToeBase
					{
						OFFSET 0.20538 -0.56428 2.52710
						CHANNELS 3 Zrotation Yrotation Xrotation
						End Site
						{
							OFFSET 0.00000 -0.00000 1.29919
						}
					}
				}
			}
		}
	}
	JOINT RHipJoint
	{
		OFFSET 0 0 0
		CHANNELS 3 Zrotation Yrotation Xrotation
		JOINT RightUpLeg
		{
			OFFSET -1.45689 -1.71333 0.88991
			CHANNELS 3 Zrotation Yrotation Xrotation
			JOINT RightLeg
			{
				OFFSET -2.36700 -6.50329 0.00000
				CHANNELS 3 Zrotation Yrotation Xrotation
				JOINT RightFoot
				{
					OFFSET -2.69814 -7.41308 0.00000
					CHANNELS 3 Zrotation Yrotation Xrotation
					JOINT RightToeBase
					{
						OFFSET -0.18734 -0.51471 2.37479
						CHANNELS 3 Zrotation Yrotation Xrotation
						End Site
						{
							OFFSET -0.00000 -0.00000 1.22113
						}
					}
				}
			}
		}
	}
	JOINT LowerBack
	{
		OFFSET 0 0 0
		CHANNELS 3 Zrotation Yrotation Xrotation
		JOINT Spine
		{
			OFFSET 0.04294 2.14638 -0.31163
			CHANNELS 3 Zrotation Yrotation Xrotation
			JOINT Spine1
			{
				OFFSET -0.00400 2.17216 0.01486
				CHANNELS 3 Zrotation Yrotation Xrotation
				JOINT Neck
				{
					OFFSET 0 0 0
					CHANNELS 3 Zrotation Yrotation Xrotation
					JOINT Neck1
					{
						OFFSET 0.03869 1.76598 0.14916
						CHANNELS 3 Zrotation Yrotation Xrotation
						JOINT Head
						{
							OFFSET -0.00760 1.75513 -0.18948
							CHANNELS 3 Zrotation Yrotation Xrotation
							End Site
							{
								OFFSET -0.00601 1.82444 -0.08310
							}
						}
					}
				}
				JOINT LeftShoulder
				{
					OFFSET 0 0 0
					CHANNELS 3 Zrotation Yrotation Xrotation
					JOINT LeftArm
					{
						OFFSET 3.73696 0.92058 0.01733
						CHANNELS 3 Zrotation Yrotation Xrotation
						JOINT LeftForeArm
						{
							OFFSET 5.22771 -0.00000 0.00000
							CHANNELS 3 Zrotation Yrotation Xrotation
							JOINT LeftHand
							{
								OFFSET 3.45251 -0.00000 0.00000
								CHANNELS 3 Zrotation Yrotation Xrotation
								JOINT LeftFingerBase
								{
									OFFSET 0 0 0
									CHANNELS 3 Zrotation Yrotation Xrotation
									JOINT LeftHandIndex1
									{
										OFFSET 0.55212 -0.00000 0.00000
										CHANNELS 3 Zrotation Yrotation Xrotation
										End Site
										{
											OFFSET 0.44513 -0.00000 0.00000
										}
									}
								}
								JOINT LThumb
								{
									OFFSET 0 0 0
									CHANNELS 3 Zrotation Yrotation Xrotation
									End Site
									{
										OFFSET 0.45193 -0.00000 0.45193
									}
								}
							}
						}
					}
				}
				JOINT RightShoulder
				{
					OFFSET 0 0 0
					CHANNELS 3 Zrotation Yrotation Xrotation
					JOINT RightArm
					{
						OFFSET -3.63819 0.83094 -0.13694
						CHANNELS 3 Zrotation Yrotation Xrotation
						JOINT RightForeArm
						{
							OFFSET -5.23980 -0.00000 -0.00000
							CHANNELS 3 Zrotation Yrotation Xrotation
							JOINT RightHand
							{
								OFFSET -3.48042 -0.00000 -0.00000
								CHANNELS 3 Zrotation Yrotation Xrotation
								JOINT RightFingerBase
								{
									OFFSET 0 0 0
									CHANNELS 3 Zrotation Yrotation Xrotation
									JOINT RightHandIndex1
									{
										OFFSET -0.61871 -0.00000 0.00000
										CHANNELS 3 Zrotation Yrotation Xrotation
										End Site
										{
											OFFSET -0.49882 -0.00000 0.00000
										}
									}
								}
								JOINT RThumb
								{
									OFFSET 0 0 0
									CHANNELS 3 Zrotation Yrotation Xrotation
									End Site
									{
										OFFSET -0.50644 -0.00000 0.50644
									}
								}
							}
						}
					}
				}
			}
		}
	}
}
MOTION
Frames: 7
Frame Time: .0083333
-4.9792 14.3750 -5.3929 364.1790 87.1079 14.7220 0.0000 0.0000 0.0000 -20.0489 -14.5179 -54.9528 14.1700 19.1648 72.7230 2.2886 1.6997 -29.2589 0.0002 -0.0879 -0.2415 0.0000 0.0000 0.0000 5.2631 14.1369 -64.6630 -27.1734 -18.7187 111.4138 -0.1644 -2.5305 -9.0257 -0.6126 5.0094 -13.9353 0.2515 -0.9830 32.4454 -1.1621 -0.5873 6.8312 -1.1954 0.0162 -9.1817 2.1564 0.2712 -4.2223 0.4222 0.5707 -9.7258 -0.2383 0.2990 -2.3358 -0.0000 -0.0000 0.0000 -80.3668 -9.4169 34.1658 24.0845 -35.2535 -7.7553 -0.0000 0.0000 -25.3978 18.9613 12.7021 4.3202 -7.1250 0.0000 -0.0000 -7.5784 43.2570 0.3280 -0.0000 -0.0000 0.0000 84.3136 9.2737 32.6023 -27.8161 38.9464 -10.0079 0.0000 -0.0000 -3.0965 -19.0831 -8.0016 2.7570 7.1250 -0.0000 -0.0000 6.6797 -38.3608 1.0980
-5.0752 14.3933 -5.3832 364.4580 87.0654 15.1774 0.0000 0.0000 0.0000 -19.8717 -14.6466 -55.3521 14.0332 19.1241 72.3060 2.2148 1.7903 -28.8279 0.0000 -0.0180 -0.0495 0.0000 0.0000 0.0000 5.4578 13.8417 -63.8048 -27.2557 -18.6879 111.6704 -0.1150 -2.7088 -7.9980 -0.5576 4.7831 -13.2908 0.2055 -0.9677 32.3317 -1.1892 -0.5921 6.8062 -1.1975 0.0122 -9.1642 2.1618 0.2824 -4.2732 0.4214 0.5827 -9.6662 -0.2392 0.3051 -2.3070 -0.0000 0.0000 0.0000 -80.3469 -9.4354 34.0566 24.1127 -35.2832 -7.7715 -0.0000 0.0000 -25.4946 18.9501 12.8030 4.3511 -7.1250 0.0000 -0.0000 -7.6088 43.3607 0.3097 -0.0000 0.0000 0.0000 84.3386 9.2854 32.6481 -27.8842 39.0094 -10.0507 0.0000 -0.0000 -3.1639 -19.1469 -8.1057 2.8027 7.1250 -0.0000 -0.0000 6.6397 -38.4744 1.0727
-5.1712 14.4112 -5.3730 364.8910 87.0388 15.7923 0.0000 0.0000 0.0000 -19.6989 -14.7811 -55.7497 13.8933 19.0814 71.8785 2.1401 1.8803 -28.3835 0.0000 0.0312 0.0857 0.0000 0.0000 0.0000 5.6599 13.5383 -62.9545 -27.3039 -18.6697 111.8212 -0.0680 -2.9542 -6.9086 -0.4975 4.5222 -12.5506 0.1774 -0.9627 31.9589 -1.1778 -0.6045 7.2063 -1.2571 -0.0062 -9.3229 2.1655 0.2950 -4.3297 0.4200 0.5965 -9.6069 -0.2399 0.3123 -2.2773 -0.0000 0.0000 0.0000 -80.3216 -9.4443 33.9559 24.1485 -35.3209 -7.7922 -0.0000 0.0000 -25.5984 18.9406 12.8733 4.3721 -7.1250 0.0000 -0.0000 -7.6317 43.4326 0.2970 -0.0000 0.0000 0.0000 84.3608 9.2783 32.7074 -27.9708 39.0893 -10.1052 0.0000 -0.0000 -3.2436 -19.1904 -8.2255 2.8507 7.1250 -0.0000 -0.0000 6.6193 -38.6030 1.0484
-5.2672 14.4288 -5.3624 365.4360 87.0280 16.5219 0.0000 0.0000 0.0000 -19.5301 -14.9208 -56.1422 13.7502 19.0365 71.4401 2.0650 1.9728 -27.9305 0.0001 0.0597 0.1640 0.0000 0.0000 0.0000 5.8723 13.2293 -62.1110 -27.3187 -18.6641 111.8673 -0.0288 -3.2121 -5.8494 -0.4456 4.2828 -11.8736 0.1437 -0.9611 31.8374 -1.2035 -0.6220 7.1765 -1.2595 -0.0163 -9.3000 2.1617 0.3061 -4.3800 0.4153 0.6092 -9.5702 -0.2405 0.3193 -2.2563 -0.0000 -0.0000 0.0000 -80.3028 -9.4560 33.8666 24.1917 -35.3663 -7.8172 -0.0000 0.0000 -25.7007 18.9225 12.9096 4.3797 -7.1250 0.0000 -0.0000 -7.6553 43.4683 0.2912 -0.0000 -0.0000 0.0000 84.3670 9.2624 32.7692 -28.0533 39.1652 -10.1573 0.0000 -0.0000 -3.3001 -19.2350 -8.2373 2.8619 7.1250 -0.0000 -0.0000 6.5829 -38.6186 1.0400
-5.3630 14.4461 -5.3511 366.0140 87.0260 17.2832 0.0000 0.0000 0.0000 -19.3646 -15.0544 -56.5264 13.6041 18.9895 70.9917 1.9907 2.0644 -27.4737 0.0001 0.0756 0.2078 0.0000 0.0000 0.0000 6.1019 12.9252 -61.2663 -27.3023 -18.6703 111.8160 -0.0012 -3.4141 -4.9304 -0.4074 4.0975 -11.3512 0.1140 -0.9623 31.7174 -1.2266 -0.6413 7.1463 -1.2605 -0.0272 -9.2782 2.1515 0.3153 -4.4161 0.4118 0.6208 -9.5567 -0.2397 0.3259 -2.2454 -0.0000 -0.0000 0.0000 -80.2871 -9.4641 33.7882 24.2405 -35.4175 -7.8455 -0.0000 0.0000 -25.7955 18.8995 12.9124 4.3749 -7.1250 0.0000 -0.0000 -7.6766 43.4689 0.2919 -0.0000 -0.0000 0.0000 84.3645 9.2295 32.8343 -28.1535 39.2572 -10.2207 0.0000 -0.0000 -3.3614 -19.2669 -8.2308 2.8648 7.1250 -0.0000 -0.0000 6.5547 -38.6142 1.0363
-5.4588 14.4627 -5.3390 366.6480 87.0328 18.0919 0.0000 0.0000 0.0000 -19.2056 -15.1795 -56.8966 13.4569 18.9410 70.5389 1.9187 2.1442 -27.0204 0.0002 0.0818 0.2247 0.0000 0.0000 0.0000 6.3506 12.6237 -60.4140 -27.2570 -18.6874 111.6746 0.0144 -3.5080 -4.2427 -0.3887 4.0033 -11.0858 0.0835 -0.9647 31.6028 -1.2451 -0.6612 7.1192 -1.2557 -0.0381 -9.2552 2.1363 0.3215 -4.4294 0.4077 0.6300 -9.5732 -0.2385 0.3313 -2.2484 0.0000 0.0000 0.0000 -80.2795 -9.4753 33.7175 24.2882 -35.4676 -7.8732 -0.0000 0.0000 -25.8788 18.8663 12.8845 4.3574 -7.1250 0.0000 -0.0000 -7.7008 43.4363 0.2991 0.0000 0.0000 0.0000 84.3478 9.1835 32.9065 -28.2728 39.3662 -10.2963 0.0000 -0.0000 -3.4398 -19.2828 -8.2138 2.8614 7.1250 -0.0000 -0.0000 6.5387 -38.5975 1.0364
-5.5546 14.4784 -5.3260 367.2750 87.0456 18.8803 0.0000 0.0000 0.0000 -19.0491 -15.2881 -57.2550 13.3109 18.8915 70.0883 1.8505 2.1982 -26.5745 0.0002 0.0860 0.2363 0.0000 0.0000 0.0000 6.6257 12.3295 -59.5493 -27.1841 -18.7147 111.4473 0.0204 -3.4822 -3.8110 -0.3890 4.0049 -11.0905 0.0503 -0.9658 31.4957 -1.2572 -0.6786 7.0968 -1.2431 -0.0475 -9.2302 2.1159 0.3247 -4.4250 0.4019 0.6361 -9.6122 -0.2371 0.3354 -2.2620 -0.0000 -0.0000 0.0000 -80.2812 -9.4922 33.6572 24.3345 -35.5160 -7.9001 -0.0000 0.0000 -25.9469 18.8174 12.8694 4.3404 -7.1250 0.0000 -0.0000 -7.7416 43.4152 0.3047 -0.0000 -0.0000 0.0000 84.3185 9.1286 32.9812 -28.4064 39.4877 -10.3811 0.0000 -0.0000 -3.5242 -19.2792 -8.2025 2.8570 7.1250 -0.0000 -0.0000 6.5402 -38.5854 1.0386
